<svg width="463" height="22" viewBox="0 0 463 22" fill="none" xmlns="http://www.w3.org/2000/svg">
<path fill-rule="evenodd" clip-rule="evenodd" d="M226.822 2.06105C223.65 2.63238 215.378 4.99934 208.353 7.20305C201.44 9.40677 193.395 11.6921 190.789 12.1818C183.311 13.651 180.251 12.7532 173.679 7.20305C164.954 -0.224288 161.101 -0.142668 141.272 7.61115C135.493 9.89649 129.034 12.0186 126.768 12.4267C123.029 13.1613 122.575 13.1613 118.836 12.3451C116.003 11.7737 113.17 10.3862 109.998 8.34572C103.199 3.69343 100.593 2.79562 94.9271 2.79562C88.355 2.79562 81.6696 4.59124 71.8114 9.0803C58.7805 15.0385 58.6672 15.0385 56.7409 14.4672C55.8344 14.2223 53.4548 12.1002 51.4152 9.97811C46.3162 4.50962 41.3304 2.63238 33.8518 3.44857C26.5999 4.18315 13.569 9.57001 4.95724 15.4466C0.19813 18.6297 -0.141807 19.9356 3.25756 20.7518C6.20367 21.4864 8.3566 20.7518 16.1751 16.3444C23.8804 11.937 33.172 7.93763 35.7781 7.93763C36.798 7.93763 38.8376 9.40677 41.2171 11.937C46.8827 18.0584 53.9081 20.507 62.0666 19.1194C63.9929 18.793 69.7718 16.5893 74.8708 14.2223C83.8225 10.223 92.4342 6.9582 94.3605 6.9582C94.8138 6.9582 97.4199 8.42734 100.026 10.223C109.544 16.7525 119.969 18.7114 131.527 16.3444C134.133 15.8547 141.725 13.2429 148.524 10.6311L160.648 5.89715L162.914 8.01925C164.047 9.16191 165.407 10.5494 166.087 11.0392C168.013 12.998 174.019 15.7731 177.985 16.5893C187.163 18.3849 194.302 17.3238 212.545 11.5289C224.896 7.61115 233.621 5.2442 236.114 5.2442C236.907 5.2442 239.173 6.22362 241.1 7.52953C248.125 12.0186 255.15 13.7326 266.368 13.7326C273.62 13.7326 281.552 12.5083 293.337 9.40677C296.849 8.50896 301.382 7.36629 303.421 6.9582L307.274 6.22363L310.673 8.99868C315.093 12.4267 318.945 13.7326 324.951 13.7326C329.936 13.7326 332.883 13.2429 345.12 10.1413C349.653 8.99868 354.865 7.93763 356.791 7.77439C359.964 7.52953 360.984 7.77439 365.403 9.73325C374.128 13.5693 377.074 13.9774 397.131 13.9774C415.147 13.9774 414.127 13.9774 454.806 17.6503C458.546 17.9768 461.719 18.14 461.945 17.8952C462.625 17.4054 456.846 15.2833 452.54 14.4672C450.614 14.0591 442.455 12.9164 434.637 11.937C420.926 10.223 419.453 10.1413 402.116 10.0597C380.814 9.89649 379.227 9.65163 370.729 5.89715C365.29 3.44857 364.95 3.36696 359.171 3.36696C353.165 3.36696 349.313 4.10153 331.523 8.2641C328.463 8.99868 325.517 9.40677 324.837 9.24353C324.158 9.0803 322.231 7.77439 320.305 6.30524C315.546 2.46914 313.393 1.81619 306.368 2.06105C301.948 2.22429 297.982 2.95886 289.144 5.16258C268.975 10.1413 261.949 10.4678 254.131 6.5501C244.046 1.65295 242.006 1 237.36 1C234.868 1 230.335 1.48971 227.049 2.14267L226.822 2.06105Z" fill="#55B1F2" stroke="#55B1F2" strokeWidth="0.16" strokeMiterlimit="10"/>
</svg>
