<svg width="1400" height="237" viewBox="0 0 1400 237" fill="none" xmlns="http://www.w3.org/2000/svg">
<path fill-rule="evenodd" clip-rule="evenodd" d="M1477.73 187.224C1477.15 183.874 1476.57 180.524 1476.13 177.174C1474.68 167.561 1473.81 157.802 1471.63 148.335C1471.05 145.567 1467.42 142.8 1464.52 141.343C1460.46 139.45 1455.81 138.576 1451.31 137.993C1426.35 134.935 1451.31 137.993 1426.35 135.226C1423.74 134.935 1418.81 135.954 1418.81 136.1C1419.24 143.528 1413.44 115.126 1425.19 121.534C1426.79 122.408 1429.54 121.389 1431.43 121.243C1431.87 118.33 1431.43 115.417 1432.88 113.669C1437.96 107.115 1439.7 100.269 1437.67 92.2579C1436.8 88.9079 1436.8 83.9557 1438.83 81.6252C1441.59 78.4208 1440.86 76.673 1439.41 73.7599C1438.25 71.1381 1437.38 68.2251 1437.09 65.312C1436.51 59.4858 1437.09 53.3684 1435.79 47.6879C1432.45 34.2877 1424.17 23.655 1409.81 20.0136C1399.36 17.3918 1388.04 18.1201 1377.15 17.5375C1347.55 15.9353 1317.94 14.6244 1288.34 12.8766C1256.84 10.9831 1225.5 8.07 1193.86 6.90477C1152.79 5.30257 1111.72 4.86561 1070.5 3.99169C1027.98 3.11776 985.313 1.80688 942.791 1.36992C894.609 0.787303 846.573 0.641649 798.391 0.495995C778.799 0.495995 759.062 0.932957 739.47 0.787303C696.948 0.641649 654.571 -0.232274 612.049 0.0590333C574.606 0.350341 537.018 1.95253 499.576 3.11777C467.503 4.13734 435.43 5.01127 403.502 6.61346C385.217 7.48738 367.076 9.81784 348.935 11.1287C344.001 11.42 336.744 12.1483 334.567 9.67219C328.908 3.11777 322.522 5.01127 315.846 5.59388C307.139 6.32215 298.576 7.48738 290.014 7.92434C260.698 9.08958 231.383 9.81784 202.067 10.9831C173.768 12.1483 145.613 13.6048 117.314 14.9157C96.2702 15.9353 75.0818 16.081 54.1836 18.1201C19.2082 21.4702 -15.7672 26.1311 -50.5975 30.2094C-52.4842 30.355 -54.3708 31.229 -56.1123 30.9377C-68.8834 29.0442 -77.8812 35.016 -86.1534 43.0269C-83.2509 51.4749 -83.396 51.3292 -86.1534 60.9424C-86.8791 63.4185 -85.7181 66.6229 -84.5571 69.099C-83.8314 70.9925 -80.3484 72.886 -80.6386 73.9056C-83.9765 83.3731 -77.0105 89.9275 -73.2372 97.9385C-84.9924 102.454 -96.4574 104.347 -107.632 102.599C-106.036 110.902 -104.584 119.495 -103.133 129.254H-111.696C-111.696 129.254 -109.374 134.352 -110.244 137.848C-111.115 141.052 -114.743 141.926 -117.21 144.839C-114.453 147.752 -111.26 149.5 -109.229 152.559C-101.537 165.522 -93.5549 177.902 -87.0242 191.448C-82.5253 200.624 -77.4459 206.159 -65.6906 204.994C-62.2076 204.703 -58.4343 207.47 -55.5318 208.635C-52.1939 206.014 -49.7268 202.664 -46.6791 202.081C-32.747 199.605 -18.6698 198.003 -4.73764 195.964C18.3374 192.468 41.7028 194.07 64.7778 190.866C87.5626 187.661 110.928 188.972 133.713 184.894C134.584 184.748 135.599 184.894 136.47 184.894C149.677 184.457 162.883 184.02 176.09 183.583C196.552 182.855 217.16 181.835 237.623 181.544C254.022 181.398 270.422 182.272 286.676 182.418C301.624 182.418 316.717 181.981 331.665 181.981C348.5 181.981 365.334 183.583 382.024 181.835C420.772 177.757 459.666 178.485 498.415 178.922C501.172 178.922 503.93 178.339 506.542 178.194C526.424 177.465 546.452 175.863 566.334 176.592C577.944 177.029 588.829 177.32 599.858 173.824C602.18 173.096 605.228 173.096 607.695 173.824C627.287 178.339 642.961 177.757 661.972 172.076C664.294 171.348 668.358 171.785 669.374 173.096C673.582 178.485 679.387 176.883 684.467 177.029C710.589 177.757 736.712 177.902 762.835 178.485C783.298 178.922 803.906 179.505 824.368 180.233C835.688 180.67 847.153 183.729 858.183 182.563C880.677 180.087 902.591 185.476 924.941 184.748C932.923 184.457 941.195 188.972 947.871 181.252C948.451 180.524 951.064 180.087 951.789 180.67C960.352 187.079 970.365 181.689 979.653 183.583C993.876 186.496 1008.53 187.807 1023.05 189.555C1025.22 189.846 1027.69 189.992 1029.87 189.263C1036.83 186.933 1043.07 188.826 1049.6 191.011C1055.84 193.05 1062.81 192.905 1069.2 194.361C1088.35 198.731 1108.24 188.972 1127.25 196.983C1127.97 197.274 1128.99 196.692 1130 196.837C1139.29 197.566 1149.02 197.129 1157.87 199.168C1170.2 202.081 1181.81 205.285 1195.17 204.557C1209.97 203.683 1225.06 207.179 1240.15 208.49C1258.15 210.092 1276 215.772 1294.43 210.966C1296.75 210.383 1299.95 211.112 1302.27 212.277C1315.62 218.977 1329.41 221.016 1344.5 218.54C1349.58 217.666 1355.24 219.414 1360.46 220.579C1370.19 222.618 1379.77 225.823 1389.49 227.279C1397.91 228.444 1427.22 229.318 1428.67 229.464C1445.94 231.794 1437.96 230.192 1454.51 236.31C1458.42 237.766 1462.2 236.892 1465.54 233.397C1469.31 229.318 1474.1 226.114 1479.03 221.89C1477.44 214.316 1475.99 206.159 1479.03 197.566C1480.05 194.653 1478.02 190.866 1477.29 187.516L1477.73 187.224Z" fill="#E9CEFF"/>
</svg>
