<svg width="313" height="57" viewBox="0 0 313 57" fill="none" xmlns="http://www.w3.org/2000/svg">
<path d="M312.447 40.7326C313.842 43.4525 312.543 47.0426 309.176 49.146C304.269 52.2284 297.005 52.8812 290.271 53.3889C195.891 60.2066 185.5 55.2021 87.079 55.601C24.3031 55.8549 21.1283 56.3626 13.2392 54.223C7.12995 52.5911 1.74229 48.8921 1.69418 44.5404C1.64608 41.4579 4.14749 38.5205 3.81077 35.438C3.42593 31.8841 -0.711022 28.6929 0.106748 25.1752C0.924518 21.585 6.64891 19.1553 7.61099 15.5652C8.38066 12.8453 6.21597 10.0167 7.22616 7.33315C8.38066 4.25068 13.3835 2.43746 18.1458 2.11109C22.9081 1.82097 27.6704 2.65505 32.4327 3.12649C48.5957 4.64959 64.8549 1.34953 81.1622 0.587982C96.6036 -0.137305 112.045 1.3858 127.486 1.92976C178.092 3.70672 219.51 -4.74288 295.803 4.14189C324.569 7.47821 304.077 24.4862 312.447 40.7689V40.7326Z" fill="#7C1EB3"/>
</svg>
