<svg width="263" height="112" viewBox="0 0 263 112" fill="none" xmlns="http://www.w3.org/2000/svg">
<path fill-rule="evenodd" clip-rule="evenodd" d="M125.025 1.98316C79.7271 7.18733 53.7155 12.7463 33.0447 21.7353C22.2642 26.3481 10.9892 34.0361 6.34078 39.7134C1.89013 45.1541 1 48.2293 1 57.928C1 71.5298 2.78026 74.0136 20.1873 83.9488C43.6274 97.4323 46.2978 98.8516 52.4298 100.744C61.2322 103.583 82.7931 109.023 87.6394 109.615C102.079 111.271 138.476 111.507 154.102 109.97C177.147 107.604 200.983 103.464 214.137 99.443C222.643 96.8409 237.874 89.9809 242.127 87.024C247.171 83.3574 255.775 73.5405 258.446 68.4546C261.611 62.1859 262.995 50.3583 261.215 43.6165C259.435 36.8747 254.687 30.7244 248.061 26.5847C245.291 24.8105 241.83 23.0364 240.346 22.445C238.863 21.9719 235.005 19.4881 231.742 17.1226C225.115 12.0367 221.555 10.6173 215.522 10.6173C213.445 10.6173 211.17 10.7356 210.477 10.9722C209.093 11.327 208.796 12.1549 210.082 12.1549C210.576 12.1549 213.148 12.8646 215.719 13.5743C219.675 14.757 221.654 15.9398 227.192 19.9612C230.753 22.5633 235.005 25.2836 236.489 25.875C242.127 27.8857 247.863 32.1437 250.929 36.5199C255.281 42.4337 256.27 47.1648 255.38 56.1538C254.391 65.0245 252.116 69.8739 245.588 76.7339C238.962 83.7122 236.588 85.2498 226.796 89.5078C210.181 96.7227 198.016 99.9161 173.685 103.346C149.751 106.658 144.608 107.013 123.442 107.013C100.794 107.013 90.112 106.303 81.8041 104.411C69.7379 101.572 55.298 97.9054 52.6276 96.841C44.6164 93.6475 15.1432 76.3791 11.9783 72.9491C7.32982 67.8632 5.84627 58.6376 8.31885 50.4765C10.5936 43.0251 13.9563 39.122 23.9456 32.7351C38.7811 23.2729 58.1662 17.1226 92.3867 10.9722C100.299 9.55286 121.168 6.71422 133.234 5.41318C145.399 4.11214 188.125 4.11214 191.686 5.41318C194.653 6.47767 195.444 5.76801 193.466 4.11214C190.598 1.74661 183.971 1.15522 158.256 1.03695C136.893 0.91867 134.915 1.03695 124.926 2.10144L125.025 1.98316Z" fill="#55B1F2" stroke="#55B1F2" strokeWidth="0.32" strokeMiterlimit="10"/>
</svg>
