<svg width="219" height="53" viewBox="0 0 219 53" fill="none" xmlns="http://www.w3.org/2000/svg">
<path d="M218.613 37.8742C219.589 40.4032 218.68 43.7414 216.324 45.6971C212.891 48.5633 207.809 49.1702 203.097 49.6423C137.061 55.9816 129.791 51.3283 60.9275 51.6992C17.0044 51.9352 14.783 52.4073 9.26319 50.4179C4.98869 48.9005 1.21904 45.4611 1.18539 41.4147C1.15173 38.5486 2.90192 35.8173 2.66632 32.9512C2.39706 29.6466 -0.497489 26.6793 0.0746893 23.4085C0.646867 20.0703 4.65211 17.8111 5.32526 14.4729C5.86378 11.9439 4.34919 9.31379 5.056 6.81855C5.86378 3.95239 9.36417 2.26641 12.6963 1.96294C16.0284 1.69318 19.3604 2.46873 22.6925 2.90709C34.0015 4.3233 45.3777 1.25483 56.7876 0.54672C67.5917 -0.12767 78.3957 1.28855 89.1998 1.79434C124.608 3.4466 153.587 -4.41005 206.967 3.85123C227.095 6.95342 212.757 22.7679 218.613 37.9079V37.8742Z" fill="#7C1EB3"/>
</svg>
